<svg width="356" height="83" viewBox="0 0 356 83" fill="none" xmlns="http://www.w3.org/2000/svg">
<path d="M111.728 67.1316V30.3479H120.108L120.923 35.3166C122.11 33.5368 123.667 32.1277 125.596 31.0895C127.573 30.0018 129.848 29.4579 132.418 29.4579C138.104 29.4579 142.133 31.658 144.507 36.0582C145.842 34.0312 147.621 32.4244 149.846 31.2378C152.12 30.0512 154.592 29.4579 157.262 29.4579C162.058 29.4579 165.741 30.8917 168.312 33.7593C170.883 36.6268 172.169 40.8293 172.169 46.3666V67.1316H162.676V47.2565C162.676 44.0923 162.058 41.6697 160.822 39.9888C159.635 38.3078 157.781 37.4673 155.26 37.4673C152.689 37.4673 150.613 38.4067 149.03 40.2854C147.498 42.1642 146.731 44.7845 146.731 48.1465V67.1316H137.239V47.2565C137.239 44.0923 136.621 41.6697 135.385 39.9888C134.149 38.3078 132.245 37.4673 129.674 37.4673C127.153 37.4673 125.101 38.4067 123.519 40.2854C121.986 42.1642 121.22 44.7845 121.22 48.1465V67.1316H111.728Z" fill="#1E293B"/>
<path d="M187.93 68.0216C184.765 68.0216 182.17 67.5271 180.143 66.5383C178.116 65.5001 176.608 64.1405 175.619 62.4595C174.63 60.7785 174.136 58.9245 174.136 56.8974C174.136 53.486 175.47 50.7174 178.14 48.5914C180.81 46.4655 184.815 45.4025 190.154 45.4025H199.499V44.5126C199.499 41.9911 198.782 40.1371 197.348 38.9505C195.914 37.7639 194.134 37.1707 192.008 37.1707C190.08 37.1707 188.399 37.6403 186.965 38.5797C185.532 39.4696 184.642 40.8045 184.296 42.5844H175.026C175.273 39.9146 176.163 37.5909 177.695 35.6133C179.277 33.6357 181.304 32.1277 183.777 31.0895C186.249 30.0018 189.017 29.4579 192.083 29.4579C197.323 29.4579 201.452 30.7681 204.467 33.3885C207.483 36.0088 208.991 39.7168 208.991 44.5126V67.1316H200.908L200.018 61.1988C198.93 63.1764 197.397 64.8079 195.42 66.0934C193.492 67.3788 190.995 68.0216 187.93 68.0216ZM190.08 60.6055C192.799 60.6055 194.901 59.7155 196.384 57.9357C197.917 56.1558 198.881 53.9557 199.276 51.3354H191.193C188.671 51.3354 186.867 51.8051 185.779 52.7444C184.691 53.6344 184.147 54.7468 184.147 56.0817C184.147 57.5154 184.691 58.6279 185.779 59.4189C186.867 60.2099 188.3 60.6055 190.08 60.6055Z" fill="#1E293B"/>
<path d="M212.117 67.1316V30.3479H220.571L221.461 37.2448C222.796 34.8717 224.601 32.9929 226.875 31.6086C229.199 30.1748 231.918 29.4579 235.033 29.4579V39.4696H232.363C230.286 39.4696 228.432 39.791 226.801 40.4337C225.169 41.0765 223.884 42.1889 222.944 43.771C222.054 45.3531 221.61 47.5532 221.61 50.3713V67.1316H212.117Z" fill="#1E293B"/>
<path d="M235.588 67.1316V13.7358H245.08V45.2542L258.133 30.3479H269.405L254.35 47.1082L271.852 67.1316H259.987L245.08 48.6656V67.1316H235.588Z" fill="#1E293B"/>
<path d="M286.636 68.0216C282.928 68.0216 279.64 67.2305 276.772 65.6484C273.905 64.0663 271.655 61.8415 270.024 58.9739C268.392 56.1064 267.576 52.7939 267.576 49.0364C267.576 45.2295 268.368 41.8428 269.95 38.8764C271.581 35.9099 273.806 33.6109 276.624 31.9794C279.492 30.2984 282.854 29.4579 286.71 29.4579C290.319 29.4579 293.508 30.249 296.277 31.8311C299.045 33.4132 301.196 35.5886 302.729 38.3572C304.311 41.0765 305.102 44.1171 305.102 47.479C305.102 48.0229 305.077 48.5914 305.028 49.1847C305.028 49.778 305.003 50.396 304.954 51.0387H276.995C277.193 53.9063 278.181 56.1558 279.961 57.7874C281.791 59.4189 283.991 60.2347 286.562 60.2347C288.49 60.2347 290.097 59.8144 291.382 58.9739C292.717 58.084 293.706 56.9469 294.349 55.5625H303.989C303.297 57.8862 302.135 60.0122 300.504 61.9404C298.922 63.8191 296.944 65.3023 294.571 66.39C292.247 67.4777 289.602 68.0216 286.636 68.0216ZM286.71 37.1707C284.386 37.1707 282.334 37.8381 280.555 39.173C278.775 40.4585 277.638 42.4361 277.143 45.1059H295.461C295.313 42.6833 294.423 40.7551 292.791 39.3213C291.16 37.8875 289.133 37.1707 286.71 37.1707Z" fill="#1E293B"/>
<path d="M325.026 68.0216C321.318 68.0216 318.03 67.2305 315.162 65.6484C312.295 64.0663 310.045 61.8415 308.414 58.9739C306.782 56.1064 305.966 52.7939 305.966 49.0364C305.966 45.2295 306.757 41.8428 308.339 38.8764C309.971 35.9099 312.196 33.6109 315.014 31.9794C317.881 30.2984 321.243 29.4579 325.1 29.4579C328.709 29.4579 331.898 30.249 334.667 31.8311C337.435 33.4132 339.586 35.5886 341.119 38.3572C342.701 41.0765 343.492 44.1171 343.492 47.479C343.492 48.0229 343.467 48.5914 343.418 49.1847C343.418 49.778 343.393 50.396 343.343 51.0387H315.385C315.582 53.9063 316.571 56.1558 318.351 57.7874C320.18 59.4189 322.381 60.2347 324.951 60.2347C326.88 60.2347 328.486 59.8144 329.772 58.9739C331.107 58.084 332.096 56.9469 332.738 55.5625H342.379C341.687 57.8862 340.525 60.0122 338.894 61.9404C337.312 63.8191 335.334 65.3023 332.961 66.39C330.637 67.4777 327.992 68.0216 325.026 68.0216ZM325.1 37.1707C322.776 37.1707 320.724 37.8381 318.944 39.173C317.165 40.4585 316.027 42.4361 315.533 45.1059H333.851C333.702 42.6833 332.813 40.7551 331.181 39.3213C329.549 37.8875 327.522 37.1707 325.1 37.1707Z" fill="#1E293B"/>
<path d="M0 80.2414V24.4037V2.21107C0 0.414964 2.0309 -0.629096 3.49157 0.4161L38.0433 25.14C38.8114 25.6896 39.844 25.6896 40.6121 25.14L75.1638 0.416102C76.6245 -0.629094 78.6554 0.414964 78.6554 2.21107V80.1428C78.6554 82.2032 76.0826 83.14 74.7579 81.5621L54.6896 57.6592C53.8697 56.6826 52.3952 56.602 51.4737 57.4833L40.8847 67.6099C40.0187 68.438 38.6503 68.424 37.8015 67.5784L27.7185 57.534C26.8091 56.6281 25.3214 56.6864 24.4856 57.6607L3.88241 81.6785C2.54851 83.2335 0 82.2901 0 80.2414Z" fill="url(#paint0_linear)"/>
<path d="M349.621 67.6507C347.891 67.6507 346.457 67.1068 345.32 66.0191C344.232 64.9314 343.688 63.6213 343.688 62.0886C343.688 60.5065 344.232 59.1716 345.32 58.0839C346.457 56.9962 347.891 56.4524 349.621 56.4524C351.352 56.4524 352.761 56.9962 353.848 58.0839C354.986 59.1716 355.554 60.5065 355.554 62.0886C355.554 63.6213 354.986 64.9314 353.848 66.0191C352.761 67.1068 351.352 67.6507 349.621 67.6507Z" fill="#1FC8E1"/>
<defs>
<linearGradient id="paint0_linear" x1="38.6731" y1="5.9437" x2="38.6731" y2="86.2043" gradientUnits="userSpaceOnUse">
<stop stop-color="#2DD4BF"/>
<stop offset="1" stop-color="#22D3EE"/>
</linearGradient>
</defs>
</svg>
